<?xml version="1.0" encoding="utf-8"?>
<!-- Generator: Adobe Illustrator 27.5.0, SVG Export Plug-In . SVG Version: 6.00 Build 0)  -->
<svg version="1.1" xmlns="http://www.w3.org/2000/svg" xmlns:xlink="http://www.w3.org/1999/xlink" x="0px" y="0px"
	 viewBox="0 0 2300 2000" style="enable-background:new 0 0 2300 2000;" xml:space="preserve">
<g id="background">
	<rect style="fill:#EDEEEF;" width="2300" height="2000"/>
</g>
<g id="Layer_2">
	<g>
		<path style="fill:#2D2862;" d="M1274.318,868.969l667.917,388.048c21.738,12.63,21.815,44,0.138,56.735l-889.413,522.557
			c-14.896,8.752-31.432,13.498-48.109,14.231c-19.436,0.855-39.064-3.739-56.509-13.792l-665.975-383.794
			c-21.906-12.624-21.94-44.226-0.06-56.897l910.262-527.145C1217.856,854.268,1249.051,854.289,1274.318,868.969z"/>
		<path style="fill:#3BAAD8;" d="M1942.38,1293.363l-38.519,22.626l-10.246,6.018l-185.641,109.024l-10.245,6.018l-185.632,109.024
			l-10.246,6.01l-185.632,109.024l-10.254,6.018l-185.623,109.024l-10.254,6.018l-57.211,33.603
			c-14.895,8.748-31.434,13.491-48.111,14.223c-19.432,0.852-39.062-3.745-56.505-13.801l-156.092-89.988l-10.34-5.967
			L594.457,1612.22l-10.34-5.967l-187.371-108.025l-10.34-5.958l-104.056-59.992c-21.903-12.622-21.929-44.228-0.052-56.893
			l60.982-35.299l10.314-5.975l186.993-108.24l10.314-5.975l186.993-108.249l10.314-5.967L935.2,997.432l10.323-5.975
			l186.993-108.24l10.314-5.975l49.824-28.842c25.286-14.645,56.479-14.619,81.749,0.069l113.888,66.191l10.297,5.992
			l186.614,108.456l10.297,5.992l186.614,108.456l10.297,5.984l149.842,87.095C1963.991,1249.264,1964.06,1280.638,1942.38,1293.363
			z"/>
		<g style="opacity:0.4;">
			<ellipse style="fill:#3BAAD8;" cx="792.841" cy="1477.472" rx="135.011" ry="78.62"/>
		</g>
		<g style="opacity:0.4;">
			<polygon style="fill:#3BAAD8;" points="1791.342,1363.27 1623.302,1266.025 1666.145,1241.925 1375.421,1073.682 
				1333.24,1098.165 1077.269,950.033 1040.432,971.414 1296.403,1119.546 1182.951,1185.395 1472.329,1350.947 1585.887,1287.071 
				1753.927,1384.316 			"/>
		</g>
		<polygon style="fill:#2D2B64;" points="1297.741,1029.845 1588.465,1156.364 1588.465,1198.089 1394.649,1307.11 
			1105.271,1141.559 1105.271,1099.835 		"/>
		<polygon style="fill:#D9DDF6;" points="1297.741,988.121 1588.465,1156.364 1394.649,1265.386 1105.271,1099.835 		"/>
		<polygon style="fill:#B4BAEC;" points="1455.38,1051.484 1455.38,1164 1455.173,1164.124 1415.817,1186.971 1415.858,1187.054 
			1415.817,1187.033 1246.049,1089.514 1246.049,931.242 		"/>
		<polygon style="fill:#242454;" points="1455.173,1164.124 1415.817,1186.971 1415.817,1028.865 1455.173,1051.484 		"/>
		<path style="fill:#D9DDF6;" d="M931.119,209.145v570.364c0,17.57,9.394,33.8,24.63,42.552l792.539,455.249
			c18.546,10.653,39.689,7.678,54.526-3.771c11.335-8.747,18.989-22.44,18.989-38.781V664.394c0-17.57-9.394-33.8-24.63-42.552
			l-792.539-455.249C971.919,147.802,931.119,171.417,931.119,209.145z"/>
		<path style="fill:#2D2862;" d="M1797.173,621.843l-792.539-455.249c-17.233-9.899-36.704-8.021-51.279,1.48l789.963,453.769
			c15.236,8.752,24.63,24.981,24.63,42.552v570.364c0,16.34-7.653,30.034-18.989,38.781c-1.05,0.811-2.139,1.566-3.249,2.29
			l2.578,1.481c18.546,10.653,39.69,7.678,54.526-3.771c11.336-8.747,18.989-22.44,18.989-38.781V664.394
			C1821.803,646.824,1812.409,630.594,1797.173,621.843z"/>
		<polygon style="fill:#FFFFFF;" points="1710.228,660.713 1710.228,1204.262 1443.694,1051.164 1423.689,1039.669 
			1398.234,1025.056 1229.882,928.35 991.189,791.238 991.189,247.69 1307.326,429.282 1348.35,452.845 1350.545,454.106 
			1402.265,483.815 1408.243,487.249 1458.026,515.845 		"/>
		<polygon style="fill:#F8F7F5;" points="1187.912,531.604 1187.912,418.943 1022.3,323.812 1022.3,436.473 		"/>
		<polygon style="fill:#F8F7F5;" points="1187.912,667.826 1187.912,555.165 1022.3,460.034 1022.3,572.695 		"/>
		<polygon style="fill:#F8F7F5;" points="1673.133,795.041 1673.133,682.38 1507.521,587.25 1507.521,699.911 		"/>
		<polygon style="fill:#F8F7F5;" points="1673.133,931.263 1673.133,818.602 1507.521,723.472 1507.521,836.133 		"/>
		<g>
			<polygon style="fill:#F57E12;" points="1780.569,381.911 1581.429,267.522 1567.307,275.643 1581.429,703.613 1766.574,825.035 
				1780.569,818.002 			"/>
			<polygon style="fill:#FEC144;" points="1765.934,389.792 1566.794,275.403 1566.794,711.494 1765.934,825.883 			"/>
			<polygon style="fill:#FFFFFF;" points="1583.779,414.993 1583.779,433.561 1748.949,528.438 1748.949,509.87 			"/>
			<polygon style="fill:#FFFFFF;" points="1583.779,492.978 1583.779,511.545 1748.949,606.422 1748.949,587.854 			"/>
			<polygon style="fill:#FFFFFF;" points="1703.258,403.783 1583.779,335.152 1583.779,353.719 1703.258,422.351 			"/>
			<polygon style="fill:#FFFFFF;" points="1634.558,405.169 1583.779,376.001 1583.779,394.568 1634.558,423.737 			"/>
			<polygon style="fill:#F80492;" points="1647.555,412.635 1647.555,431.203 1748.949,489.445 1748.949,470.877 			"/>
			<g>
				<polygon style="fill:#FFFFFF;" points="1660.552,498.085 1583.779,453.985 1583.779,472.553 1660.552,516.653 				"/>
				<polygon style="fill:#FFFFFF;" points="1673.55,505.551 1673.55,524.119 1748.949,567.43 1748.949,548.862 				"/>
			</g>
			<polygon style="fill:#FFFFFF;" points="1583.779,622.952 1583.779,641.52 1748.949,736.396 1748.949,717.829 			"/>
			<polygon style="fill:#F80492;" points="1634.558,613.128 1583.779,583.96 1583.779,602.527 1634.558,631.696 			"/>
			<polygon style="fill:#FFFFFF;" points="1647.555,620.594 1647.555,639.162 1748.949,697.404 1748.949,678.836 			"/>
			<g>
				<g>
					<polygon style="fill:#FFFFFF;" points="1660.552,706.044 1583.779,661.944 1583.779,680.512 1660.552,724.612 					"/>
				</g>
				<g>
					<polygon style="fill:#F80492;" points="1673.55,713.51 1673.55,732.078 1748.949,775.389 1748.949,756.821 					"/>
				</g>
			</g>
		</g>
		<g>
			<polygon style="fill:#F57E12;" points="1046.546,926.357 1046.546,641.972 847.406,527.582 833.284,535.704 842.891,826.838 
				1031.425,935.364 			"/>
			<polygon style="fill:#FEC144;" points="1031.91,935.414 1031.91,649.853 832.771,535.463 832.771,821.025 			"/>
			<polygon style="fill:#FFFFFF;" points="849.755,675.053 849.755,693.621 1014.926,788.498 1014.926,769.93 			"/>
			<polygon style="fill:#FFFFFF;" points="849.755,753.038 849.755,771.606 1014.926,866.482 1014.926,847.915 			"/>
			<polygon style="fill:#FFFFFF;" points="969.235,663.843 849.755,595.212 849.755,613.78 969.235,682.411 			"/>
			<polygon style="fill:#FFFFFF;" points="900.534,665.229 849.755,636.061 849.755,654.629 900.534,683.797 			"/>
			<polygon style="fill:#F80492;" points="913.532,672.695 913.532,691.263 1014.926,749.505 1014.926,730.938 			"/>
			<g>
				<polygon style="fill:#FFFFFF;" points="926.529,758.146 849.755,714.046 849.755,732.613 926.529,776.714 				"/>
				<polygon style="fill:#FFFFFF;" points="939.527,765.612 939.527,784.18 1014.926,827.49 1014.926,808.922 				"/>
			</g>
		</g>
		<g>
			<polygon style="fill:#F57E12;" points="1585.232,1002.502 1980.477,1243.834 1993.435,1237.023 1993.435,1117.123 
				1585.232,881.087 1571.811,888.08 			"/>
			<path style="fill:#FEC144;" d="M1571.722,887.842v94.01c-14.879,4.263-33.945,9.802-32.56,9.802
				c1.345,0,18.755,9.639,32.56,17.403v0.2l408.203,234.521v-119.901L1571.722,887.842z"/>
			<polygon style="fill:#F80492;" points="1719.291,991.781 1587.655,915.665 1587.655,937.055 1719.291,1013.171 			"/>
			<g>
				<polygon style="fill:#FFFFFF;" points="1681.013,1003.422 1681.013,1024.812 1961.338,1186.905 1961.338,1165.514 				"/>
				<polygon style="fill:#FFFFFF;" points="1667.504,995.61 1587.655,949.439 1587.655,970.829 1667.504,1017 				"/>
			</g>
			<g>
				<polygon style="fill:#FFFFFF;" points="1796.971,1105.372 1587.655,984.339 1587.655,1005.729 1796.971,1126.762 				"/>
				<polygon style="fill:#F80492;" points="1810.481,1113.184 1810.481,1134.574 1961.338,1221.804 1961.338,1200.414 				"/>
			</g>
		</g>
		<g>
			<path style="fill:#F4A590;" d="M958.595,733.04c0,0-3.302-13.094,6.39-15.811c7.415-2.078,14.887,13.699,23.599,18.429
				c8.407,4.565-5.485,39.535-5.485,39.535C914.426,786.775,918.075,733.7,958.595,733.04z"/>
			<path style="fill:#8CD337;" d="M1236.618,644.157l-10.081,97.638l-2.11,20.442l-2.415,23.419v0.023
				c0,0-35.562,70.398-63.693,70.398c-20.77,0-67.795-20.723-108.304-40.72c-37.743-18.637-69.859-36.641-69.859-36.641
				l10.08-47.776l144.64,47.776c0,0,47.143-90.652,82.19-121.667c0.047-0.047,0.07-0.07,0.117-0.094
				C1224.615,650.37,1231.319,645.752,1236.618,644.157z"/>
			<g style="opacity:0.56;">
				<path style="fill:#2BA150;" d="M1226.537,741.795l-2.11,20.442l-2.415,23.419v0.023c0,0-35.562,70.398-63.693,70.398
					c-20.77,0-67.795-20.723-108.304-40.72C1108.528,834.088,1186.966,832.002,1226.537,741.795z"/>
			</g>
			<path style="fill:#8CD337;" d="M1405.428,925.817c-1.362,17.788,3.94,27.762,11.123,40.349c1.238,2.15,2.533,4.391,3.839,6.766
				c0.507,0.878,1.002,1.779,1.509,2.713c0.732,1.362,1.486,2.769,2.229,4.233c0.765,1.486,1.531,3.04,2.297,4.65
				c3.558,7.52,7.115,16.459,10.188,27.774c0.878,3.22,1.711,6.62,2.499,10.234c0.011,0.056,0.023,0.101,0.034,0.157
				c0.18,0.833,0.36,1.666,0.529,2.522c1.587,7.656,2.95,16.245,4.019,25.95l-20.005-11.494
				c-12.215,5.224-23.158-2.094-25.454-14.613l-168.353-96.706c0.427-6.372,0.405-13.003-0.214-19.994
				c-4.278-48.173-26.4-42.814-32.401-82.724c-0.135-0.788-0.248-1.599-0.349-2.432c-1.925-15.052-0.18-27.785,2.983-38.773
				c5.809-20.107,16.347-34.382,17.754-46.383c2.184-18.553,0-79.696,13.104-90.616c1.182-0.979,3.152-2.015,5.832-3.006
				c11.033-4.12,34.146-7.79,64.036-6.045c0.079,0,0.158,0,0.225,0.011c1.328,0.079,2.679,0.158,4.03,0.27h0.022
				c10.402,0.766,21.571,2.195,33.279,4.458c5.843,1.148,11.832,2.499,17.934,4.076l0.022,0.011
				c4.447,1.16,8.962,2.443,13.521,3.862c0.225,0.068,0.462,0.146,0.698,0.214c20.49,6.44,41.97,15.626,63.506,28.415
				c0.439,0.259,0.89,0.518,1.34,0.799c0.923,0.552,1.847,1.115,2.77,1.689c1.328,0.811,2.668,1.644,3.996,2.499
				c5.201,4.267,10.504,8.961,15.863,14.005v5.516c-3.873,34.877-12.046,60.309-26.817,93.07c-1.205,2.668-2.454,5.381-3.749,8.162
				c-0.709,1.531-1.441,3.085-2.184,4.661C1406.52,849.397,1408.704,883.239,1405.428,925.817z"/>
			<path style="fill:#3186FB;" d="M1439.146,1022.688c-0.011-0.055-0.022-0.098-0.033-0.153c0.022,0.098,0.022,0.142,0.022,0.142
				L1439.146,1022.688z"/>
			<g style="opacity:0.56;">
				<path style="fill:#2BA150;" d="M1312.638,887.61c0,0-1.092,38.21,60.044,62.228c43.548,17.107,58.778,46.802,63.931,62.468
					c-3.079-11.321-6.627-20.262-10.186-27.773c-3.384-7.14-6.801-12.991-9.88-18.363c-7.183-12.587-12.478-22.566-11.114-40.35
					c3.275-42.577,1.092-76.42,19.651-115.722c2.085-4.421,4.061-8.679,5.928-12.828c14.771-32.762,22.948-58.188,26.823-93.069
					v-5.513c-5.36-5.044-10.666-9.738-15.863-14.007c-2.249-1.441-4.509-2.838-6.769-4.192c-0.448-0.273-0.895-0.535-1.343-0.797
					c-2.915-0.339-5.502-0.196-7.686,0.491c-24.018,7.642-29.476,110.263-51.311,145.198c-21.834,34.935-38.21,54.586-87.337,41.485
					h-7.642C1295.17,886.519,1312.638,887.61,1312.638,887.61z"/>
			</g>
			<path style="fill:#F4A590;" d="M1450.888,1001.651c-0.158,0.473-0.315,0.935-0.484,1.396
				c-3.208,9.209-6.867,16.504-10.729,22.167c-5.167,7.577-10.695,12.192-15.986,14.455c-12.215,5.224-23.158-2.094-25.454-14.613
				c-1.16-6.248-0.158-13.802,3.929-21.728c0,0-13.104-3.276-10.92-13.093c1.554-7.014,16.437-7.351,25.511-11.202
				c1.734-0.743,3.253-1.599,4.424-2.668c0.259-0.225,0.507-0.473,0.721-0.72c0.912-1.025,1.508-2.207,1.734-3.614
				L1450.888,1001.651z"/>
			<path style="fill:#8CD337;" d="M1560.031,839.559c-15.133-37.528-58.172-128.513-130.697-161.685l-14.452-2.917
				c-35.216,13.632-39.76,68.16-39.76,68.16c8.127,17.554,98.499,111.789,98.499,111.789l-53.918,119.557
				c14.066,18.754,38.68,33.992,38.68,33.992l98.08-138.592C1562.722,861.017,1564.083,849.607,1560.031,839.559z"/>
			<path style="fill:#FFFFFF;" d="M1371.646,649.784l-56.262,65.639l-25.787-30.475l-25.787,11.721c0,0,7.033-37.508,37.508-58.606
				L1371.646,649.784z"/>
			<circle style="fill:#2D2862;" cx="1422.047" cy="454.039" r="71.499"/>
			<path style="fill:#F4A590;" d="M1290.803,685.643l79.695-34.935l-5.459-64.411l-4.17,1.627l-60.241,23.483v27.293
				c0,0-2.216,1.9-5.164,4.989C1286.524,653.099,1290.803,685.643,1290.803,685.643z"/>
			<g style="opacity:0.55;">
				<path style="fill:#F86C7D;" d="M1295.465,643.689c13.57,26.19,53.068,9.716,68.483-51.933l-3.079-3.832l-60.241,23.483v27.293
					C1300.629,638.699,1298.413,640.599,1295.465,643.689z"/>
			</g>
			
				<ellipse transform="matrix(0.9871 -0.1602 0.1602 0.9871 -58.4799 226.3829)" style="fill:#CE0576;" cx="1374.918" cy="475.918" rx="35.186" ry="35.186"/>
			<path style="fill:#F4A590;" d="M1307.744,483.382l-29.855-6.398l-21.325,25.59c0,0-23.584,124.556,46.915,134.348
				c76.77,10.663,76.77-106.626,76.77-106.626L1307.744,483.382z"/>
			<path style="fill:#2D2862;" d="M1239.504,487.647c10.663-70.373,125.818-78.903,151.408-21.325
				c40.518,44.783-10.662,98.095-10.662,98.095s-109.261,1.755-118.315-51.273c-12.631,13.782-9.16,25.683-9.16,25.683
				S1233.106,534.562,1239.504,487.647z"/>
			<circle style="fill:#2D2862;" cx="1356.357" cy="560.015" r="20.259"/>
			<circle style="fill:#F4A590;" cx="1364.255" cy="565.483" r="20.259"/>
		</g>
		<g>
			<polygon style="fill:#D80080;" points="1338.077,1334.58 1568.193,1416.85 1569.111,1467.766 1207.497,1677.268 
				974.543,1544.345 974.371,1537.907 973.362,1499.787 973.201,1493.696 			"/>
			<polygon style="fill:#F80492;" points="1336.546,1283.717 1568.223,1416.901 1206.069,1626.582 973.115,1493.661 			"/>
			<polygon style="fill:#FFFFFF;" points="1428.115,1462.875 1258.776,1366.252 1306.835,1338.489 1475.491,1435.445 			"/>
			<polygon style="fill:#FFFFFF;" points="1209.843,1672.507 1209.223,1665.045 1206.555,1632.965 973.362,1499.787 
				974.184,1530.813 974.371,1537.907 			"/>
		</g>
		<g>
			<polygon style="fill:#7EB232;" points="1362.844,1273.787 1592.96,1356.056 1593.879,1406.973 1232.265,1616.474 
				999.311,1483.552 999.139,1477.114 998.13,1438.994 997.968,1432.902 			"/>
			<polygon style="fill:#8CD337;" points="1361.314,1222.923 1592.99,1356.108 1230.836,1565.789 997.883,1432.868 			"/>
			<polygon style="fill:#7EB232;" points="1452.883,1402.082 1283.544,1305.458 1331.603,1277.696 1500.259,1374.652 			"/>
			<polygon style="fill:#FFFFFF;" points="1234.61,1611.713 1233.99,1604.251 1231.323,1572.172 998.13,1438.994 998.951,1470.019 
				999.139,1477.114 			"/>
		</g>
		<g>
			<g>
				<g>
					<polygon style="fill:#B5A9AD;" points="617.35,1211.851 617.35,1214.593 779.486,1307.577 1038.18,1157.957 1038.18,1155.215 
						906.411,1079.813 875.455,1064.839 826.276,1090.633 					"/>
				</g>
				<g>
					<polygon style="fill:#D9DDF6;" points="617.35,1211.851 779.486,1304.836 1038.18,1155.215 906.411,1079.813 875.455,1062.098 
						826.276,1090.633 					"/>
				</g>
				<polygon style="fill:#F8F7F5;" points="641.675,1202.832 854.307,1079.463 1008.023,1167.423 795.052,1290.597 				"/>
				<g>
					
						<rect x="930.251" y="1035.348" transform="matrix(0.4967 -0.8679 0.8679 0.4967 -507.0204 1373.5088)" style="fill:#B5A9AD;" width="0.914" height="177.103"/>
					
						<rect x="912.507" y="1045.553" transform="matrix(0.4967 -0.8679 0.8679 0.4967 -524.8086 1363.2462)" style="fill:#B5A9AD;" width="0.914" height="177.103"/>
					
						<rect x="894.763" y="1055.758" transform="matrix(0.4967 -0.8679 0.8679 0.4967 -542.597 1352.9823)" style="fill:#B5A9AD;" width="0.914" height="177.103"/>
					
						<rect x="877.019" y="1065.962" transform="matrix(0.4967 -0.8679 0.8679 0.4967 -560.3857 1342.7158)" style="fill:#B5A9AD;" width="0.914" height="177.103"/>
					
						<rect x="859.275" y="1076.167" transform="matrix(0.4967 -0.8679 0.8679 0.4967 -578.174 1332.4525)" style="fill:#B5A9AD;" width="0.914" height="177.103"/>
					
						<rect x="841.531" y="1086.372" transform="matrix(0.4967 -0.8679 0.8679 0.4967 -595.9624 1322.1892)" style="fill:#B5A9AD;" width="0.914" height="177.103"/>
					
						<rect x="823.787" y="1096.576" transform="matrix(0.4967 -0.8679 0.8679 0.4967 -613.751 1311.9222)" style="fill:#B5A9AD;" width="0.914" height="177.103"/>
					
						<rect x="806.043" y="1106.781" transform="matrix(0.4967 -0.8679 0.8679 0.4967 -631.5393 1301.6598)" style="fill:#B5A9AD;" width="0.914" height="177.103"/>
					
						<rect x="788.299" y="1116.986" transform="matrix(0.4967 -0.8679 0.8679 0.4967 -649.3277 1291.3958)" style="fill:#B5A9AD;" width="0.914" height="177.103"/>
					
						<rect x="770.555" y="1127.191" transform="matrix(0.4967 -0.8679 0.8679 0.4967 -667.1163 1281.1283)" style="fill:#B5A9AD;" width="0.914" height="177.103"/>
					
						<rect x="752.811" y="1137.395" transform="matrix(0.4967 -0.8679 0.8679 0.4967 -684.9047 1270.8655)" style="fill:#B5A9AD;" width="0.914" height="177.103"/>
					
						<rect x="735.067" y="1147.6" transform="matrix(0.4967 -0.8679 0.8679 0.4967 -702.6931 1260.6013)" style="fill:#B5A9AD;" width="0.914" height="177.103"/>
					
						<rect x="717.323" y="1157.805" transform="matrix(0.4967 -0.8679 0.8679 0.4967 -720.4815 1250.3357)" style="fill:#B5A9AD;" width="0.914" height="177.103"/>
				</g>
			</g>
			<g style="opacity:0.4;">
				<polygon style="fill:#3BAAD8;" points="912.456,1072.867 879.12,1053.79 826.161,1084.519 601.178,1215.053 601.178,1218.005 
					775.776,1318.136 1054.352,1157.016 1054.352,1154.064 				"/>
			</g>
			<g>
				<g>
					<polygon style="fill:#B5A9AD;" points="622.552,1234.119 622.845,1236.845 793.966,1312.023 1035.244,1135.688 
						1034.952,1132.962 895.898,1072.03 863.522,1060.441 817.371,1091.328 					"/>
				</g>
				<g>
					<polygon style="fill:#D9DDF6;" points="622.552,1234.119 793.674,1309.297 1034.952,1132.962 895.898,1072.03 863.23,1057.715 
						817.371,1091.328 					"/>
				</g>
				<polygon style="fill:#F8F7F5;" points="645.778,1222.559 844.053,1077.235 1006.267,1148.314 807.633,1293.481 				"/>
				<g>
					
						<rect x="924.297" y="1024.726" transform="matrix(0.4013 -0.9159 0.9159 0.4013 -466.0712 1513.4785)" style="fill:#B5A9AD;" width="0.914" height="177.103"/>
					
						<rect x="907.742" y="1036.763" transform="matrix(0.4013 -0.9159 0.9159 0.4013 -487.0076 1505.5212)" style="fill:#B5A9AD;" width="0.914" height="177.103"/>
					
						<rect x="891.186" y="1048.8" transform="matrix(0.4013 -0.9159 0.9159 0.4013 -507.9437 1497.5656)" style="fill:#B5A9AD;" width="0.914" height="177.103"/>
					
						<rect x="874.631" y="1060.838" transform="matrix(0.4013 -0.9159 0.9159 0.4013 -528.8807 1489.6061)" style="fill:#B5A9AD;" width="0.914" height="177.103"/>
					
						<rect x="858.075" y="1072.875" transform="matrix(0.4013 -0.9159 0.9159 0.4013 -549.8171 1481.6492)" style="fill:#B5A9AD;" width="0.914" height="177.103"/>
					
						<rect x="841.519" y="1084.913" transform="matrix(0.4013 -0.9159 0.9159 0.4013 -570.7536 1473.6915)" style="fill:#B5A9AD;" width="0.914" height="177.103"/>
					
						<rect x="824.964" y="1096.95" transform="matrix(0.4013 -0.9159 0.9159 0.4013 -591.6904 1465.7319)" style="fill:#B5A9AD;" width="0.914" height="177.103"/>
					
						<rect x="808.408" y="1108.987" transform="matrix(0.4013 -0.9159 0.9159 0.4013 -612.6263 1457.7775)" style="fill:#B5A9AD;" width="0.914" height="177.103"/>
					
						<rect x="791.853" y="1121.025" transform="matrix(0.4013 -0.9159 0.9159 0.4013 -633.5629 1449.8202)" style="fill:#B5A9AD;" width="0.914" height="177.103"/>
					
						<rect x="775.297" y="1133.062" transform="matrix(0.4013 -0.9159 0.9159 0.4013 -654.4998 1441.8596)" style="fill:#B5A9AD;" width="0.914" height="177.103"/>
					
						<rect x="758.741" y="1145.099" transform="matrix(0.4013 -0.9159 0.9159 0.4013 -675.436 1433.9047)" style="fill:#B5A9AD;" width="0.914" height="177.103"/>
					
						<rect x="742.186" y="1157.137" transform="matrix(0.4013 -0.9159 0.9159 0.4013 -696.3724 1425.9475)" style="fill:#B5A9AD;" width="0.914" height="177.103"/>
					
						<rect x="725.63" y="1169.174" transform="matrix(0.4013 -0.9159 0.9159 0.4013 -717.3091 1417.9874)" style="fill:#B5A9AD;" width="0.914" height="177.103"/>
				</g>
			</g>
			<g>
				<g>
					<polygon style="fill:#B5A9AD;" points="616.224,1198.342 616.224,1201.083 778.36,1294.068 1037.054,1144.447 
						1037.054,1141.705 905.286,1066.303 874.329,1051.33 825.15,1077.123 					"/>
				</g>
				<g>
					<polygon style="fill:#D9DDF6;" points="616.224,1198.342 778.36,1291.326 1037.054,1141.705 905.286,1066.303 
						874.329,1048.588 825.15,1077.123 					"/>
				</g>
				<polygon style="fill:#F8F7F5;" points="640.549,1189.322 853.181,1065.953 1006.897,1153.913 793.926,1277.087 				"/>
				<g>
					
						<rect x="929.125" y="1021.838" transform="matrix(0.4967 -0.8679 0.8679 0.4967 -495.8614 1365.7321)" style="fill:#B5A9AD;" width="0.914" height="177.103"/>
					
						<rect x="911.381" y="1032.043" transform="matrix(0.4967 -0.8679 0.8679 0.4967 -513.6497 1355.4685)" style="fill:#B5A9AD;" width="0.914" height="177.103"/>
					
						<rect x="893.637" y="1042.248" transform="matrix(0.4967 -0.8679 0.8679 0.4967 -531.4381 1345.205)" style="fill:#B5A9AD;" width="0.914" height="177.103"/>
					
						<rect x="875.893" y="1052.453" transform="matrix(0.4967 -0.8679 0.8679 0.4967 -549.2266 1334.9395)" style="fill:#B5A9AD;" width="0.914" height="177.103"/>
					
						<rect x="858.149" y="1062.657" transform="matrix(0.4967 -0.8679 0.8679 0.4967 -567.0151 1324.6755)" style="fill:#B5A9AD;" width="0.914" height="177.103"/>
					
						<rect x="840.405" y="1072.862" transform="matrix(0.4967 -0.8679 0.8679 0.4967 -584.8035 1314.4113)" style="fill:#B5A9AD;" width="0.914" height="177.103"/>
					
						<rect x="822.661" y="1083.067" transform="matrix(0.4967 -0.8679 0.8679 0.4967 -602.5922 1304.144)" style="fill:#B5A9AD;" width="0.914" height="177.103"/>
					
						<rect x="804.917" y="1093.271" transform="matrix(0.4967 -0.8679 0.8679 0.4967 -620.3804 1293.8828)" style="fill:#B5A9AD;" width="0.914" height="177.103"/>
					
						<rect x="787.173" y="1103.476" transform="matrix(0.4967 -0.8679 0.8679 0.4967 -638.1688 1283.6185)" style="fill:#B5A9AD;" width="0.914" height="177.103"/>
					
						<rect x="769.429" y="1113.681" transform="matrix(0.4967 -0.8679 0.8679 0.4967 -655.9573 1273.3519)" style="fill:#B5A9AD;" width="0.914" height="177.103"/>
					
						<rect x="751.685" y="1123.885" transform="matrix(0.4967 -0.8679 0.8679 0.4967 -673.7457 1263.0903)" style="fill:#B5A9AD;" width="0.914" height="177.103"/>
					
						<rect x="733.941" y="1134.09" transform="matrix(0.4967 -0.8679 0.8679 0.4967 -691.5341 1252.8258)" style="fill:#B5A9AD;" width="0.914" height="177.103"/>
					
						<rect x="716.197" y="1144.295" transform="matrix(0.4967 -0.8679 0.8679 0.4967 -709.3225 1242.5585)" style="fill:#B5A9AD;" width="0.914" height="177.103"/>
				</g>
			</g>
		</g>
		<g>
			<g>
				<path style="fill:#F4A590;" d="M625.755,1114.209c-17.849,37.687,26.823,47.731,28.01-7.925l-21.955-9.559
					C609.273,1114.426,625.755,1114.209,625.755,1114.209z"/>
				<path style="fill:#F4A590;" d="M956.14,1115.78c0,0,14.144-8.464-14.328-11.707l-13.674,19.657
					C958.351,1170.487,991.109,1138.497,956.14,1115.78z"/>
			</g>
			<path style="fill:#FAC03B;" d="M658.858,1003.575c0,0,15.224-88.808,55.496-108.868l5.917-2.357
				c31.444,20.078-2.987,81.83-21.512,132.064c-9.701,26.306-43.627,89.312-43.627,89.312l-27.002-17.309L658.858,1003.575z"/>
			<path style="fill:#FAC03B;" d="M828.227,1481.592c3.976,4.544,50.556,11.361,48.284,32.379
				c-2.84,10.793-69.302,9.657-81.231,4.544s-10.225-32.379-10.225-32.379L828.227,1481.592z"/>
			<path style="fill:#FAC03B;" d="M713.304,1442.964c-1.704,28.97,6.249,30.675,16.473,30.106
				c10.225-0.568,42.577-27.219,41.738-33.491c-0.839-6.272-29.241-5.136-29.241-5.136L713.304,1442.964z"/>
			<path style="fill:#2D2862;" d="M779.375,1239.603c-1.704,3.976-24.994,186.32-24.994,186.32s-2.272,31.243-43.172,22.722
				v-164.166c0,0-11.929-104.521-5.112-148.829c6.817-44.308,61.917,10.225,61.917,10.225L779.375,1239.603z"/>
			<path style="fill:#2D2862;" d="M832.204,1120.881l-96.568,18.746c7.953,31.243,27.266,68.166,27.266,68.166l22.154,278.344
				c28.402,9.089,47.148,0,47.148,0S838.452,1272.55,832.204,1120.881z"/>
			<path style="fill:#FAC03B;" d="M836.748,1136.786c-59.077,55.669-123.835,23.858-138.604,0c0.006-3.244,0.023-6.447,0.051-9.611
				c0.778-100.618,9.248-163.393,5.362-173.09c-1.693-4.221-2.999-8.577-3.88-13.014c-1.216-6.158-1.613-12.469-1.068-18.763
				c2.556-29.709,21.075-39.315,51.795-20.694c37.491,22.722,80.663,27.266,88.615,57.941c1.483,5.715,2.448,14.423,3.022,25
				C844.553,1030.783,839.52,1112.752,836.748,1136.786z"/>
			<g style="opacity:0.5;">
				<path style="fill:#F57E12;" d="M837.874,1135.55c-58.038,56.751-123.372,26.144-138.58,2.563
					c-0.054-3.243-0.096-6.447-0.126-9.611c42.623,18.801,107.825-7.573,100.171-33.714c-10.916-37.296-13.86-73.603-2.08-112.454
					l43.094,0.913C843.718,1029.42,840.201,1111.469,837.874,1135.55z"/>
			</g>
			<path style="fill:#FAC03B;" d="M887.096,1031.245c0,0-27.496-85.806-70.179-100.036l-6.189-1.506
				c-28.326,24.278,3.447,88.423,39.773,127.757c36.326,39.333,77.367,71.391,77.367,71.391l19.278-24.269L887.096,1031.245z"/>
			<path style="fill:#F4A590;" d="M778.662,920.157c0,0-36.739,17.221-36.739-10.333v-25.258c0,0-21.814-16.073-18.37-45.924
				c3.444-29.851,51.664-51.664,74.627-22.962c12.629,18.37,9.848,72.152,5.74,80.367c-5.74,11.481-26.406,1.148-26.406,1.148
				L778.662,920.157z"/>
			<path style="fill:#FFBD8B;" d="M777.512,897.195l0.659,13.133c-11.918-8.481-12.713-21.211-12.713-21.211
				s5.987,4.578,14.332,9.094C778.37,897.627,777.512,897.195,777.512,897.195z"/>
			<path style="fill:#2D2862;" d="M783.254,859.308c0-11.481,18.37-18.37,24.11-28.702s4.592-28.702,4.592-28.702
				s-10.333-2.296-13.777-4.592c-3.444-2.296-51.665-24.11-74.627,21.814c-22.962,21.814-3.444,57.405,18.37,65.442
				c0,11.481,30.999,8.037,32.147,0C775.218,876.53,783.254,859.308,783.254,859.308z"/>
			
				<ellipse transform="matrix(0.7071 -0.7071 0.7071 0.7071 -381.5585 805.4891)" style="fill:#F4A590;" cx="781.532" cy="863.326" rx="10.907" ry="10.907"/>
			<path style="fill:#FFFDFF;" d="M777.808,915.312c-39.501,14.908-35.885-18.274-35.885-18.274s-13.528,15.341,0.348,28.226
				c13.876,12.885,42.207,1.938,46.874-4.978L777.808,915.312z"/>
		</g>
		<g style="opacity:0.4;">
			<polygon style="fill:#3BAAD8;" points="1569.559,1467.868 1207.051,1677.268 1244.202,1698.658 1604.459,1489.259 			"/>
		</g>
	</g>
</g>
</svg>
