<svg width="360" height="324" viewBox="0 0 360 324" fill="none" xmlns="http://www.w3.org/2000/svg">
<path d="M324.007 324C333.554 324 342.711 320.207 349.462 313.456C356.214 306.705 360.007 297.548 360.007 288V200.088C360.007 190.54 356.214 181.383 349.462 174.632C342.711 167.881 333.554 164.088 324.007 164.088H274.039C274.039 151.44 274.783 138.792 276.271 126.144C278.503 112.752 282.223 100.848 287.431 90.432C292.639 80.016 299.347 71.82 307.555 65.844C315.715 59.148 326.131 55.8 338.803 55.8V0C317.971 0 299.731 4.464 284.083 13.392C268.543 22.2075 255.192 34.4144 245.023 49.104C234.785 65.2734 227.246 83.0011 222.703 101.592C218.108 122.103 215.862 143.07 216.007 164.088V288C216.007 297.548 219.799 306.705 226.551 313.456C233.302 320.207 242.459 324 252.007 324H324.007ZM108.007 324C117.554 324 126.711 320.207 133.462 313.456C140.214 306.705 144.007 297.548 144.007 288V200.088C144.007 190.54 140.214 181.383 133.462 174.632C126.711 167.881 117.554 164.088 108.007 164.088H58.0386C58.0386 151.44 58.7826 138.792 60.2706 126.144C62.5266 112.752 66.2466 100.848 71.4306 90.432C76.6386 80.016 83.3466 71.82 91.5546 65.844C99.7146 59.148 110.131 55.8 122.803 55.8V0C101.971 0 83.7306 4.464 68.0826 13.392C52.5429 22.2075 39.1916 34.4144 29.0226 49.104C18.7845 65.2734 11.246 83.0011 6.70257 101.592C2.10837 122.103 -0.138069 143.07 0.00656261 164.088V288C0.00656261 297.548 3.79941 306.705 10.5507 313.456C17.302 320.207 26.4588 324 36.0066 324H108.007Z" fill="black" fill-opacity="0.04" style="fill:black;fill-opacity:0.04;"/>
</svg>
